# xmcd
#
# Track frame offsets: 
#        182
#        19380
#        36487
#        53382
#        70065
#        87222
#        105777
#        122687
#        139387
#        160145
#        176865
#        192382
#        210925
#        225625
#        238902
#        259215
#        277367
#        297325
#        315957
#        337085
#
# Disc length: 4685 seconds
#
# Revision: 5
# Processed by: cddbd v1.5.2PL0 Copyright (c) Steve Scherf et al.
# Submitted via: ExactAudioCopy v1.0b3
#
DISCID=2a124b14
DTITLE=Various Artist - 100% Pure Groove [CD 1)
DYEAR=1900
DGENRE=
TTITLE0=Rufus and Chaka Khan - Ain't nobody
TTITLE1=Jocelyn Brown - Somebody Else's Guy
TTITLE2=Mary Jane Girls - All Night Long
TTITLE3=Loose Ends - Hangin' On A String
TTITLE4=Luther Vandross - Never Too Much
TTITLE5=Fatback Band (The) - I Found Lovin'
TTITLE6=Cameo - She's Strange
TTITLE7=Mtume - Juicy Fruit
TTITLE8=Earth Wind and Fire - Let's Groove
TTITLE9=Kool and The Gang - Too Hot
TTITLE10=Tom Browne - Funkin' For Jamaica
TTITLE11=Gwen McCrae - All This Love That I'm Giving
TTITLE12=Maceo and The Macks - 'Cross The Track (We Better Go Back)
TTITLE13=Jackson Sisters - I Believe In Miracles
TTITLE14=Maze - Joy and Pain
TTITLE15=Dennis Edwards Ft. Siedah Garrett - Don't Look Any Further
TTITLE16=Shalamar - There It Is
TTITLE17=Yarbrough and Peoples - Don't Stop The Music
TTITLE18=Sister Sledge - Lost In Music
TTITLE19=Stock Aitken and Waterman - Roadblock
EXTD=
EXTT0=
EXTT1=
EXTT2=
EXTT3=
EXTT4=
EXTT5=
EXTT6=
EXTT7=
EXTT8=
EXTT9=
EXTT10=
EXTT11=
EXTT12=
EXTT13=
EXTT14=
EXTT15=
EXTT16=
EXTT17=
EXTT18=
EXTT19=
PLAYORDER=
